<svg xmlns="http://www.w3.org/2000/svg" xml:space="preserve" width="655.359" height="655.359" style="shape-rendering:geometricPrecision;text-rendering:geometricPrecision;image-rendering:optimizeQuality;fill-rule:evenodd;clip-rule:evenodd" viewBox="0 0 6.827 6.827"><defs><style>.fil0{fill:#212121;fill-rule:nonzero}</style></defs><g id="Layer_x0020_1"><path class="fil0" d="M1.861 1.978a1.393 1.393 0 0 1 1.975-.013 1.393 1.393 0 0 1 .013 1.976 1.393 1.393 0 0 1-1.976.012 1.393 1.393 0 0 1-.012-1.975zm.986-.203a1.181 1.181 0 0 0-.825 2.026 1.181 1.181 0 0 0 1.675-.01 1.181 1.181 0 0 0-.01-1.674 1.181 1.181 0 0 0-.84-.342z"/><path class="fil0" d="M3.844 3.787a.106.106 0 0 0-.145.155L5.26 5.411a.106.106 0 0 0 .146-.155L3.844 3.787zM4.907 1.173a.425.425 0 0 1 .301.729.425.425 0 0 1-.728-.302.425.425 0 0 1 .427-.427zm.15.276a.213.213 0 0 0-.364.151.213.213 0 0 0 .365.15.213.213 0 0 0 0-.3zM2.987 4.907a.425.425 0 0 1 .301.728.425.425 0 0 1-.728-.302.425.425 0 0 1 .427-.426zm.15.275a.213.213 0 0 0-.364.151.213.213 0 0 0 .365.151.213.213 0 0 0 0-.302zM1.173 4.16a.425.425 0 0 1 .302.728.425.425 0 0 1-.728-.301.425.425 0 0 1 .426-.427zm.151.276a.213.213 0 0 0-.364.15.213.213 0 0 0 .364.152.213.213 0 0 0 0-.302zM1.387.853a.425.425 0 0 1 .301.729.425.425 0 0 1-.728-.302.425.425 0 0 1 .427-.427zm.15.276a.213.213 0 0 0-.364.151.213.213 0 0 0 .365.15.213.213 0 0 0 0-.3z"/><g id="_397663448"><path id="_397664456" class="fil0" d="M3.78 2.833v.254h-.239a.72.72 0 0 1-.098.237l.132.131.037.038-.037.038-.142.142-.038.037-.038-.037-.131-.132a.718.718 0 0 1-.237.098v.24h-.307v-.24a.72.72 0 0 1-.237-.098l-.132.132-.038.037-.037-.037-.142-.142-.038-.038.038-.038.132-.131a.715.715 0 0 1-.099-.237H1.89V2.78h.239a.72.72 0 0 1 .099-.237l-.132-.132-.038-.037.038-.038.142-.142.037-.038.038.038.132.132a.718.718 0 0 1 .237-.099v-.239h.307v.239a.72.72 0 0 1 .237.099l.131-.132.038-.038.038.038.142.142.037.038-.037.037-.132.132a.715.715 0 0 1 .098.237h.24v.053zm-.106.147v-.094H3.451l-.007-.045a.61.61 0 0 0-.113-.273l-.027-.037.032-.032.126-.125-.067-.067-.125.125-.033.033-.036-.027a.616.616 0 0 0-.273-.114l-.046-.006V2.095h-.094V2.318l-.045.006a.61.61 0 0 0-.273.113l-.037.028-.032-.033-.126-.125-.066.067.125.125.033.032-.028.037a.616.616 0 0 0-.113.273l-.006.045H1.997v.094H2.22l.006.046a.61.61 0 0 0 .113.273l.028.037-.033.032-.125.125.066.067.126-.126.032-.032.037.027a.616.616 0 0 0 .273.113l.045.007V3.772h.094V3.549l.046-.007A.61.61 0 0 0 3.2 3.43l.037-.027.033.032.125.126.067-.067-.126-.125-.032-.033.027-.036a.616.616 0 0 0 .113-.273l.007-.046H3.674z"/><path id="_397663520" class="fil0" d="M2.835 2.479a.453.453 0 0 1 .322.776.453.453 0 0 1-.776-.322.453.453 0 0 1 .454-.454zm.246.208a.347.347 0 0 0-.594.246.347.347 0 0 0 .594.246.347.347 0 0 0 0-.492z"/></g><path class="fil0" d="m4.666 1.822-.735.424-.053-.092.735-.424zM1.96 3.876l-.498.546-.078-.071.497-.547zM2.933 4.26l.106.746-.105.015-.107-.747zM1.61 1.506l.419.46-.08.072-.417-.461z"/></g><path style="fill:none" d="M0 0h6.827v6.827H0z"/></svg>